<mxfile host="app.diagrams.net" modified="2023-12-21T22:36:29.237Z" agent="Mozilla/5.0 (Windows NT 10.0; Win64; x64) AppleWebKit/537.36 (KHTML, like Gecko) Chrome/120.0.0.0 Safari/537.36" etag="QtwGonGyueNm3tf92_2v" version="22.1.11" type="device">
  <diagram name="Page-1" id="e7e014a7-5840-1c2e-5031-d8a46d1fe8dd">
    <mxGraphModel dx="2049" dy="1260" grid="1" gridSize="10" guides="1" tooltips="1" connect="1" arrows="1" fold="1" page="1" pageScale="1" pageWidth="1169" pageHeight="826" background="none" math="0" shadow="0">
      <root>
        <mxCell id="0" />
        <mxCell id="1" parent="0" />
        <mxCell id="ed6IXrYMEEjexA1pDEx7-41" value="Cliente" style="rounded=0;whiteSpace=wrap;html=1;fontSize=16;" parent="1" vertex="1">
          <mxGeometry x="70" y="157" width="120" height="60" as="geometry" />
        </mxCell>
        <mxCell id="ed6IXrYMEEjexA1pDEx7-42" style="edgeStyle=none;curved=1;rounded=0;orthogonalLoop=1;jettySize=auto;html=1;entryX=0.5;entryY=1;entryDx=0;entryDy=0;fontSize=12;startSize=8;endSize=8;" parent="1" source="ed6IXrYMEEjexA1pDEx7-41" target="ed6IXrYMEEjexA1pDEx7-41" edge="1">
          <mxGeometry relative="1" as="geometry" />
        </mxCell>
        <mxCell id="ed6IXrYMEEjexA1pDEx7-45" value="" style="ellipse;whiteSpace=wrap;html=1;aspect=fixed;fontSize=16;fillColor=#000000;" parent="1" vertex="1">
          <mxGeometry x="1009.5" y="427" width="10" height="10" as="geometry" />
        </mxCell>
        <mxCell id="ed6IXrYMEEjexA1pDEx7-46" value="ID_Categoria" style="text;html=1;strokeColor=none;fillColor=none;align=center;verticalAlign=middle;whiteSpace=wrap;rounded=0;fontSize=16;" parent="1" vertex="1">
          <mxGeometry x="1002.5" y="416" width="132" height="30" as="geometry" />
        </mxCell>
        <mxCell id="ed6IXrYMEEjexA1pDEx7-47" value="" style="ellipse;whiteSpace=wrap;html=1;aspect=fixed;fontSize=16;" parent="1" vertex="1">
          <mxGeometry x="1009.5" y="447" width="10" height="10" as="geometry" />
        </mxCell>
        <mxCell id="ed6IXrYMEEjexA1pDEx7-48" value="nome_categoria" style="text;html=1;strokeColor=none;fillColor=none;align=center;verticalAlign=middle;whiteSpace=wrap;rounded=0;fontSize=16;" parent="1" vertex="1">
          <mxGeometry x="1029.5" y="437" width="110" height="30" as="geometry" />
        </mxCell>
        <mxCell id="ed6IXrYMEEjexA1pDEx7-57" value="Modelagem Lógica de Banco de dados" style="text;html=1;strokeColor=none;fillColor=none;align=center;verticalAlign=middle;whiteSpace=wrap;rounded=0;fontSize=16;" parent="1" vertex="1">
          <mxGeometry x="-260" y="-160" width="380" height="30" as="geometry" />
        </mxCell>
        <mxCell id="ed6IXrYMEEjexA1pDEx7-58" value="Funcionario" style="rounded=0;whiteSpace=wrap;html=1;fontSize=16;" parent="1" vertex="1">
          <mxGeometry x="447.5" y="546" width="130" height="60" as="geometry" />
        </mxCell>
        <mxCell id="ed6IXrYMEEjexA1pDEx7-60" value="Categoria" style="rounded=0;whiteSpace=wrap;html=1;fontSize=16;" parent="1" vertex="1">
          <mxGeometry x="827" y="392" width="120" height="60" as="geometry" />
        </mxCell>
        <mxCell id="ed6IXrYMEEjexA1pDEx7-64" value="" style="endArrow=none;html=1;rounded=0;fontSize=12;startSize=8;endSize=8;curved=1;entryX=0.454;entryY=0;entryDx=0;entryDy=0;exitX=0.5;exitY=1;exitDx=0;exitDy=0;entryPerimeter=0;" parent="1" source="ed6IXrYMEEjexA1pDEx7-65" target="ed6IXrYMEEjexA1pDEx7-60" edge="1">
          <mxGeometry width="50" height="50" relative="1" as="geometry">
            <mxPoint x="999.5" y="492" as="sourcePoint" />
            <mxPoint x="847" y="527.75" as="targetPoint" />
          </mxGeometry>
        </mxCell>
        <mxCell id="ed6IXrYMEEjexA1pDEx7-65" value="pertence" style="rhombus;whiteSpace=wrap;html=1;fontSize=16;" parent="1" vertex="1">
          <mxGeometry x="837" y="151.5" width="90" height="71" as="geometry" />
        </mxCell>
        <mxCell id="ed6IXrYMEEjexA1pDEx7-69" value="" style="endArrow=none;html=1;rounded=0;fontSize=12;startSize=8;endSize=8;curved=1;entryX=1;entryY=0.5;entryDx=0;entryDy=0;" parent="1" source="ed6IXrYMEEjexA1pDEx7-65" target="ed6IXrYMEEjexA1pDEx7-129" edge="1">
          <mxGeometry width="50" height="50" relative="1" as="geometry">
            <mxPoint x="830" y="269" as="sourcePoint" />
            <mxPoint x="920" y="269" as="targetPoint" />
          </mxGeometry>
        </mxCell>
        <mxCell id="ed6IXrYMEEjexA1pDEx7-70" value="" style="endArrow=none;html=1;rounded=0;fontSize=12;startSize=8;endSize=8;curved=1;exitX=1;exitY=0.5;exitDx=0;exitDy=0;" parent="1" source="ed6IXrYMEEjexA1pDEx7-60" edge="1">
          <mxGeometry width="50" height="50" relative="1" as="geometry">
            <mxPoint x="977" y="392" as="sourcePoint" />
            <mxPoint x="1009.5" y="457" as="targetPoint" />
            <Array as="points">
              <mxPoint x="1027" y="410" />
            </Array>
          </mxGeometry>
        </mxCell>
        <mxCell id="ed6IXrYMEEjexA1pDEx7-73" value="" style="ellipse;whiteSpace=wrap;html=1;aspect=fixed;fontSize=16;fillColor=#000000;" parent="1" vertex="1">
          <mxGeometry x="682.5" y="-16" width="10" height="10" as="geometry" />
        </mxCell>
        <mxCell id="ed6IXrYMEEjexA1pDEx7-74" value="" style="ellipse;whiteSpace=wrap;html=1;aspect=fixed;fontSize=16;" parent="1" vertex="1">
          <mxGeometry x="682.5" y="25" width="10" height="10" as="geometry" />
        </mxCell>
        <mxCell id="ed6IXrYMEEjexA1pDEx7-75" value="[pk] ID_Produto" style="text;html=1;strokeColor=none;fillColor=none;align=center;verticalAlign=middle;whiteSpace=wrap;rounded=0;fontSize=16;" parent="1" vertex="1">
          <mxGeometry x="674" y="-26" width="153" height="30" as="geometry" />
        </mxCell>
        <mxCell id="ed6IXrYMEEjexA1pDEx7-76" value="" style="ellipse;whiteSpace=wrap;html=1;aspect=fixed;fontSize=16;" parent="1" vertex="1">
          <mxGeometry x="680.5" y="45" width="10" height="10" as="geometry" />
        </mxCell>
        <mxCell id="ed6IXrYMEEjexA1pDEx7-77" value="nome_prod" style="text;html=1;strokeColor=none;fillColor=none;align=center;verticalAlign=middle;whiteSpace=wrap;rounded=0;fontSize=16;" parent="1" vertex="1">
          <mxGeometry x="689.5" y="15" width="101" height="30" as="geometry" />
        </mxCell>
        <mxCell id="ed6IXrYMEEjexA1pDEx7-78" value="" style="ellipse;whiteSpace=wrap;html=1;aspect=fixed;fontSize=16;" parent="1" vertex="1">
          <mxGeometry x="680.5" y="65" width="10" height="10" as="geometry" />
        </mxCell>
        <mxCell id="ed6IXrYMEEjexA1pDEx7-79" value="desc_prod" style="text;html=1;strokeColor=none;fillColor=none;align=center;verticalAlign=middle;whiteSpace=wrap;rounded=0;fontSize=16;" parent="1" vertex="1">
          <mxGeometry x="690.5" y="35" width="95" height="30" as="geometry" />
        </mxCell>
        <mxCell id="ed6IXrYMEEjexA1pDEx7-80" value="" style="ellipse;whiteSpace=wrap;html=1;aspect=fixed;fontSize=16;" parent="1" vertex="1">
          <mxGeometry x="680.5" y="84" width="10" height="10" as="geometry" />
        </mxCell>
        <mxCell id="ed6IXrYMEEjexA1pDEx7-81" value="qtd_emEstoque" style="text;html=1;strokeColor=none;fillColor=none;align=center;verticalAlign=middle;whiteSpace=wrap;rounded=0;fontSize=16;" parent="1" vertex="1">
          <mxGeometry x="690.5" y="52" width="125" height="30" as="geometry" />
        </mxCell>
        <mxCell id="ed6IXrYMEEjexA1pDEx7-83" value="" style="endArrow=none;html=1;rounded=0;fontSize=12;startSize=8;endSize=8;curved=1;exitX=0.125;exitY=1.003;exitDx=0;exitDy=0;exitPerimeter=0;entryX=0;entryY=0;entryDx=0;entryDy=0;" parent="1" target="okxWtbQ-i64ZqHGIuKGg-1" edge="1">
          <mxGeometry width="50" height="50" relative="1" as="geometry">
            <mxPoint x="595" y="216.99999999999994" as="sourcePoint" />
            <mxPoint x="595" y="338.82" as="targetPoint" />
          </mxGeometry>
        </mxCell>
        <mxCell id="ed6IXrYMEEjexA1pDEx7-87" value="" style="ellipse;whiteSpace=wrap;html=1;aspect=fixed;fontSize=16;fillColor=#000000;" parent="1" vertex="1">
          <mxGeometry x="682.5" y="4" width="10" height="10" as="geometry" />
        </mxCell>
        <mxCell id="ed6IXrYMEEjexA1pDEx7-90" value="preço" style="text;html=1;strokeColor=none;fillColor=none;align=center;verticalAlign=middle;whiteSpace=wrap;rounded=0;fontSize=16;" parent="1" vertex="1">
          <mxGeometry x="655.5" y="72" width="125" height="30" as="geometry" />
        </mxCell>
        <mxCell id="ed6IXrYMEEjexA1pDEx7-91" value="" style="ellipse;whiteSpace=wrap;html=1;aspect=fixed;fontSize=16;fillColor=#000000;" parent="1" vertex="1">
          <mxGeometry x="97" y="247" width="10" height="10" as="geometry" />
        </mxCell>
        <mxCell id="ed6IXrYMEEjexA1pDEx7-92" value="" style="ellipse;whiteSpace=wrap;html=1;aspect=fixed;fontSize=16;" parent="1" vertex="1">
          <mxGeometry x="97" y="289" width="10" height="10" as="geometry" />
        </mxCell>
        <mxCell id="ed6IXrYMEEjexA1pDEx7-93" value="[pk] ID_Cliente" style="text;html=1;strokeColor=none;fillColor=none;align=center;verticalAlign=middle;whiteSpace=wrap;rounded=0;fontSize=16;" parent="1" vertex="1">
          <mxGeometry x="88.5" y="217" width="153" height="30" as="geometry" />
        </mxCell>
        <mxCell id="ed6IXrYMEEjexA1pDEx7-94" value="" style="ellipse;whiteSpace=wrap;html=1;aspect=fixed;fontSize=16;" parent="1" vertex="1">
          <mxGeometry x="95" y="309" width="10" height="10" as="geometry" />
        </mxCell>
        <mxCell id="ed6IXrYMEEjexA1pDEx7-95" value="sexo" style="text;html=1;strokeColor=none;fillColor=none;align=center;verticalAlign=middle;whiteSpace=wrap;rounded=0;fontSize=16;" parent="1" vertex="1">
          <mxGeometry x="94.5" y="278" width="71" height="30" as="geometry" />
        </mxCell>
        <mxCell id="ed6IXrYMEEjexA1pDEx7-96" value="" style="ellipse;whiteSpace=wrap;html=1;aspect=fixed;fontSize=16;" parent="1" vertex="1">
          <mxGeometry x="95" y="329" width="10" height="10" as="geometry" />
        </mxCell>
        <mxCell id="ed6IXrYMEEjexA1pDEx7-99" value="Cpf" style="text;html=1;strokeColor=none;fillColor=none;align=center;verticalAlign=middle;whiteSpace=wrap;rounded=0;fontSize=16;" parent="1" vertex="1">
          <mxGeometry x="97" y="318" width="55.5" height="30" as="geometry" />
        </mxCell>
        <mxCell id="ed6IXrYMEEjexA1pDEx7-101" value="nome completo" style="text;html=1;strokeColor=none;fillColor=none;align=center;verticalAlign=middle;whiteSpace=wrap;rounded=0;fontSize=16;" parent="1" vertex="1">
          <mxGeometry x="89.5" y="259" width="153" height="30" as="geometry" />
        </mxCell>
        <mxCell id="ed6IXrYMEEjexA1pDEx7-102" value="EMail" style="text;html=1;strokeColor=none;fillColor=none;align=center;verticalAlign=middle;whiteSpace=wrap;rounded=0;fontSize=16;" parent="1" vertex="1">
          <mxGeometry x="67" y="297" width="125" height="30" as="geometry" />
        </mxCell>
        <mxCell id="ed6IXrYMEEjexA1pDEx7-103" value="" style="endArrow=none;html=1;rounded=0;fontSize=12;startSize=8;endSize=8;curved=1;entryX=0.192;entryY=0.993;entryDx=0;entryDy=0;entryPerimeter=0;" parent="1" source="ed6IXrYMEEjexA1pDEx7-180" edge="1">
          <mxGeometry width="50" height="50" relative="1" as="geometry">
            <mxPoint x="96" y="330" as="sourcePoint" />
            <mxPoint x="96.03999999999996" y="209.58000000000004" as="targetPoint" />
          </mxGeometry>
        </mxCell>
        <mxCell id="ed6IXrYMEEjexA1pDEx7-104" value="" style="ellipse;whiteSpace=wrap;html=1;aspect=fixed;fontSize=16;" parent="1" vertex="1">
          <mxGeometry x="97" y="269" width="10" height="10" as="geometry" />
        </mxCell>
        <mxCell id="ed6IXrYMEEjexA1pDEx7-105" value="" style="ellipse;whiteSpace=wrap;html=1;aspect=fixed;fontSize=16;" parent="1" vertex="1">
          <mxGeometry x="-170" y="19" width="10" height="10" as="geometry" />
        </mxCell>
        <mxCell id="ed6IXrYMEEjexA1pDEx7-106" value="" style="ellipse;whiteSpace=wrap;html=1;aspect=fixed;fontSize=16;" parent="1" vertex="1">
          <mxGeometry x="-170" y="37" width="10" height="10" as="geometry" />
        </mxCell>
        <mxCell id="ed6IXrYMEEjexA1pDEx7-107" value="" style="ellipse;whiteSpace=wrap;html=1;aspect=fixed;fontSize=16;" parent="1" vertex="1">
          <mxGeometry x="-170" y="54" width="10" height="10" as="geometry" />
        </mxCell>
        <mxCell id="ed6IXrYMEEjexA1pDEx7-108" value="rua" style="text;html=1;strokeColor=none;fillColor=none;align=center;verticalAlign=middle;whiteSpace=wrap;rounded=0;fontSize=16;" parent="1" vertex="1">
          <mxGeometry x="-172" y="7" width="60" height="30" as="geometry" />
        </mxCell>
        <mxCell id="ed6IXrYMEEjexA1pDEx7-109" value="bairro" style="text;html=1;strokeColor=none;fillColor=none;align=center;verticalAlign=middle;whiteSpace=wrap;rounded=0;fontSize=16;" parent="1" vertex="1">
          <mxGeometry x="-167" y="44" width="60" height="30" as="geometry" />
        </mxCell>
        <mxCell id="ed6IXrYMEEjexA1pDEx7-110" value="numero" style="text;html=1;strokeColor=none;fillColor=none;align=center;verticalAlign=middle;whiteSpace=wrap;rounded=0;fontSize=16;" parent="1" vertex="1">
          <mxGeometry x="-160" y="24" width="60" height="30" as="geometry" />
        </mxCell>
        <mxCell id="ed6IXrYMEEjexA1pDEx7-111" value="cep" style="text;html=1;strokeColor=none;fillColor=none;align=center;verticalAlign=middle;whiteSpace=wrap;rounded=0;fontSize=16;" parent="1" vertex="1">
          <mxGeometry x="-172" y="62.5" width="60" height="31" as="geometry" />
        </mxCell>
        <mxCell id="ed6IXrYMEEjexA1pDEx7-112" value="complemento" style="text;html=1;strokeColor=none;fillColor=none;align=center;verticalAlign=middle;whiteSpace=wrap;rounded=0;fontSize=16;" parent="1" vertex="1">
          <mxGeometry x="-139.5" y="82" width="60" height="30" as="geometry" />
        </mxCell>
        <mxCell id="ed6IXrYMEEjexA1pDEx7-113" value="cidade" style="text;html=1;strokeColor=none;fillColor=none;align=center;verticalAlign=middle;whiteSpace=wrap;rounded=0;fontSize=16;" parent="1" vertex="1">
          <mxGeometry x="-164" y="102" width="60" height="30" as="geometry" />
        </mxCell>
        <mxCell id="ed6IXrYMEEjexA1pDEx7-114" value="estado" style="text;html=1;strokeColor=none;fillColor=none;align=center;verticalAlign=middle;whiteSpace=wrap;rounded=0;fontSize=16;" parent="1" vertex="1">
          <mxGeometry x="-164" y="123" width="60" height="30" as="geometry" />
        </mxCell>
        <mxCell id="ed6IXrYMEEjexA1pDEx7-116" value="" style="ellipse;whiteSpace=wrap;html=1;aspect=fixed;fontSize=16;" parent="1" vertex="1">
          <mxGeometry x="-170" y="73" width="10" height="10" as="geometry" />
        </mxCell>
        <mxCell id="ed6IXrYMEEjexA1pDEx7-118" value="" style="ellipse;whiteSpace=wrap;html=1;aspect=fixed;fontSize=16;" parent="1" vertex="1">
          <mxGeometry x="-170" y="93" width="10" height="10" as="geometry" />
        </mxCell>
        <mxCell id="ed6IXrYMEEjexA1pDEx7-119" value="" style="ellipse;whiteSpace=wrap;html=1;aspect=fixed;fontSize=16;" parent="1" vertex="1">
          <mxGeometry x="-170" y="113" width="10" height="10" as="geometry" />
        </mxCell>
        <mxCell id="ed6IXrYMEEjexA1pDEx7-120" value="" style="ellipse;whiteSpace=wrap;html=1;aspect=fixed;fontSize=16;" parent="1" vertex="1">
          <mxGeometry x="-170" y="133" width="10" height="10" as="geometry" />
        </mxCell>
        <mxCell id="ed6IXrYMEEjexA1pDEx7-121" value="" style="endArrow=none;html=1;rounded=0;fontSize=12;startSize=8;endSize=8;curved=1;entryX=0.078;entryY=-0.04;entryDx=0;entryDy=0;entryPerimeter=0;exitX=0;exitY=0;exitDx=0;exitDy=0;" parent="1" source="ed6IXrYMEEjexA1pDEx7-141" target="ed6IXrYMEEjexA1pDEx7-135" edge="1">
          <mxGeometry width="50" height="50" relative="1" as="geometry">
            <mxPoint x="358" y="566.1" as="sourcePoint" />
            <mxPoint x="408" y="516.1" as="targetPoint" />
          </mxGeometry>
        </mxCell>
        <mxCell id="ed6IXrYMEEjexA1pDEx7-129" value="Produto" style="rounded=0;whiteSpace=wrap;html=1;fontSize=16;" parent="1" vertex="1">
          <mxGeometry x="540" y="157" width="120" height="60" as="geometry" />
        </mxCell>
        <mxCell id="ed6IXrYMEEjexA1pDEx7-131" value="" style="endArrow=none;html=1;rounded=0;fontSize=12;startSize=8;endSize=8;curved=1;exitX=1;exitY=0.5;exitDx=0;exitDy=0;entryX=0;entryY=0.5;entryDx=0;entryDy=0;" parent="1" source="ed6IXrYMEEjexA1pDEx7-41" target="DGtn6ml3krxi28r5MXvm-5" edge="1">
          <mxGeometry width="50" height="50" relative="1" as="geometry">
            <mxPoint x="241.5" y="267" as="sourcePoint" />
            <mxPoint x="290" y="187" as="targetPoint" />
          </mxGeometry>
        </mxCell>
        <mxCell id="ed6IXrYMEEjexA1pDEx7-132" value="" style="endArrow=none;html=1;rounded=0;fontSize=12;startSize=8;endSize=8;curved=1;entryX=0.5;entryY=0;entryDx=0;entryDy=0;exitX=0.5;exitY=1;exitDx=0;exitDy=0;" parent="1" source="DGtn6ml3krxi28r5MXvm-5" target="DGtn6ml3krxi28r5MXvm-7" edge="1">
          <mxGeometry width="50" height="50" relative="1" as="geometry">
            <mxPoint x="338" y="258" as="sourcePoint" />
            <mxPoint x="450.5" y="258" as="targetPoint" />
          </mxGeometry>
        </mxCell>
        <mxCell id="ed6IXrYMEEjexA1pDEx7-133" value="" style="ellipse;whiteSpace=wrap;html=1;aspect=fixed;fontSize=16;fillColor=#000000;" parent="1" vertex="1">
          <mxGeometry x="313.5" y="392.1" width="10" height="10" as="geometry" />
        </mxCell>
        <mxCell id="ed6IXrYMEEjexA1pDEx7-134" value="" style="ellipse;whiteSpace=wrap;html=1;aspect=fixed;fontSize=16;fillColor=#080808;" parent="1" vertex="1">
          <mxGeometry x="313.5" y="433.1" width="10" height="10" as="geometry" />
        </mxCell>
        <mxCell id="ed6IXrYMEEjexA1pDEx7-135" value="[pk] ID_Venda" style="text;html=1;strokeColor=none;fillColor=none;align=center;verticalAlign=middle;whiteSpace=wrap;rounded=0;fontSize=16;" parent="1" vertex="1">
          <mxGeometry x="305" y="382.1" width="153" height="30" as="geometry" />
        </mxCell>
        <mxCell id="ed6IXrYMEEjexA1pDEx7-136" value="" style="ellipse;whiteSpace=wrap;html=1;aspect=fixed;fontSize=16;fillColor=#000000;" parent="1" vertex="1">
          <mxGeometry x="313.5" y="412.1" width="10" height="10" as="geometry" />
        </mxCell>
        <mxCell id="ed6IXrYMEEjexA1pDEx7-137" value="[fk] ID_Cliente" style="text;html=1;strokeColor=none;fillColor=none;align=center;verticalAlign=middle;whiteSpace=wrap;rounded=0;fontSize=16;" parent="1" vertex="1">
          <mxGeometry x="315" y="402.1" width="133" height="30" as="geometry" />
        </mxCell>
        <mxCell id="ed6IXrYMEEjexA1pDEx7-138" value="[fk] ID_Produto" style="text;html=1;strokeColor=none;fillColor=none;align=center;verticalAlign=middle;whiteSpace=wrap;rounded=0;fontSize=16;" parent="1" vertex="1">
          <mxGeometry x="331" y="423.1" width="110" height="30" as="geometry" />
        </mxCell>
        <mxCell id="ed6IXrYMEEjexA1pDEx7-139" value="" style="ellipse;whiteSpace=wrap;html=1;aspect=fixed;fontSize=16;" parent="1" vertex="1">
          <mxGeometry x="315" y="454.1" width="10" height="10" as="geometry" />
        </mxCell>
        <mxCell id="ed6IXrYMEEjexA1pDEx7-140" value="" style="ellipse;whiteSpace=wrap;html=1;aspect=fixed;fontSize=16;" parent="1" vertex="1">
          <mxGeometry x="315" y="476.1" width="10" height="10" as="geometry" />
        </mxCell>
        <mxCell id="ed6IXrYMEEjexA1pDEx7-141" value="" style="ellipse;whiteSpace=wrap;html=1;aspect=fixed;fontSize=16;" parent="1" vertex="1">
          <mxGeometry x="315" y="501.1" width="10" height="10" as="geometry" />
        </mxCell>
        <mxCell id="ed6IXrYMEEjexA1pDEx7-144" value="data/hora" style="text;html=1;strokeColor=none;fillColor=none;align=center;verticalAlign=middle;whiteSpace=wrap;rounded=0;fontSize=16;" parent="1" vertex="1">
          <mxGeometry x="310" y="444.1" width="110" height="30" as="geometry" />
        </mxCell>
        <mxCell id="ed6IXrYMEEjexA1pDEx7-145" value="forma_de_pagamento" style="text;html=1;strokeColor=none;fillColor=none;align=center;verticalAlign=middle;whiteSpace=wrap;rounded=0;fontSize=16;" parent="1" vertex="1">
          <mxGeometry x="325" y="465.1" width="163" height="30" as="geometry" />
        </mxCell>
        <mxCell id="ed6IXrYMEEjexA1pDEx7-146" value="valor_total" style="text;html=1;strokeColor=none;fillColor=none;align=center;verticalAlign=middle;whiteSpace=wrap;rounded=0;fontSize=16;" parent="1" vertex="1">
          <mxGeometry x="323.5" y="491.1" width="84.5" height="30" as="geometry" />
        </mxCell>
        <mxCell id="ed6IXrYMEEjexA1pDEx7-152" value="(1, 1)" style="text;html=1;strokeColor=none;fillColor=none;align=center;verticalAlign=middle;whiteSpace=wrap;rounded=0;fontSize=16;" parent="1" vertex="1">
          <mxGeometry x="192" y="186" width="50" height="30" as="geometry" />
        </mxCell>
        <mxCell id="ed6IXrYMEEjexA1pDEx7-154" value="[fk] ID_Categoria" style="text;html=1;strokeColor=none;fillColor=none;align=center;verticalAlign=middle;whiteSpace=wrap;rounded=0;fontSize=16;" parent="1" vertex="1">
          <mxGeometry x="698" y="-6" width="127.5" height="30" as="geometry" />
        </mxCell>
        <mxCell id="ed6IXrYMEEjexA1pDEx7-155" value="(1, N)" style="text;html=1;strokeColor=none;fillColor=none;align=center;verticalAlign=middle;whiteSpace=wrap;rounded=0;fontSize=16;" parent="1" vertex="1">
          <mxGeometry x="482.5" y="156" width="60" height="30" as="geometry" />
        </mxCell>
        <mxCell id="ed6IXrYMEEjexA1pDEx7-157" value="" style="ellipse;whiteSpace=wrap;html=1;aspect=fixed;fontSize=16;fillColor=#000000;" parent="1" vertex="1">
          <mxGeometry x="498.5" y="617" width="10" height="10" as="geometry" />
        </mxCell>
        <mxCell id="ed6IXrYMEEjexA1pDEx7-158" value="[pk]ID_Adm" style="text;html=1;strokeColor=none;fillColor=none;align=center;verticalAlign=middle;whiteSpace=wrap;rounded=0;fontSize=16;" parent="1" vertex="1">
          <mxGeometry x="488" y="606" width="132" height="30" as="geometry" />
        </mxCell>
        <mxCell id="ed6IXrYMEEjexA1pDEx7-159" value="" style="ellipse;whiteSpace=wrap;html=1;aspect=fixed;fontSize=16;" parent="1" vertex="1">
          <mxGeometry x="498.5" y="659" width="10" height="10" as="geometry" />
        </mxCell>
        <mxCell id="ed6IXrYMEEjexA1pDEx7-160" value="nome" style="text;html=1;strokeColor=none;fillColor=none;align=center;verticalAlign=middle;whiteSpace=wrap;rounded=0;fontSize=16;" parent="1" vertex="1">
          <mxGeometry x="517.5" y="649" width="38" height="30" as="geometry" />
        </mxCell>
        <mxCell id="ed6IXrYMEEjexA1pDEx7-161" value="Usuario" style="rounded=0;whiteSpace=wrap;html=1;fontSize=16;" parent="1" vertex="1">
          <mxGeometry x="187.5" y="676" width="130" height="60" as="geometry" />
        </mxCell>
        <mxCell id="ed6IXrYMEEjexA1pDEx7-162" value="" style="endArrow=none;html=1;rounded=0;fontSize=12;startSize=8;endSize=8;curved=1;exitX=0;exitY=0.5;exitDx=0;exitDy=0;entryX=1;entryY=1;entryDx=0;entryDy=0;" parent="1" source="ed6IXrYMEEjexA1pDEx7-161" target="DGtn6ml3krxi28r5MXvm-1" edge="1">
          <mxGeometry width="50" height="50" relative="1" as="geometry">
            <mxPoint x="230" y="571" as="sourcePoint" />
            <mxPoint x="80" y="571.25" as="targetPoint" />
          </mxGeometry>
        </mxCell>
        <mxCell id="ed6IXrYMEEjexA1pDEx7-163" value="" style="endArrow=none;html=1;rounded=0;fontSize=12;startSize=8;endSize=8;curved=1;entryX=0;entryY=0;entryDx=0;entryDy=0;" parent="1" target="DGtn6ml3krxi28r5MXvm-1" edge="1">
          <mxGeometry width="50" height="50" relative="1" as="geometry">
            <mxPoint x="30" y="180" as="sourcePoint" />
            <mxPoint x="30" y="510" as="targetPoint" />
          </mxGeometry>
        </mxCell>
        <mxCell id="ed6IXrYMEEjexA1pDEx7-164" value="" style="endArrow=none;html=1;rounded=0;fontSize=12;startSize=8;endSize=8;curved=1;exitX=0;exitY=0.5;exitDx=0;exitDy=0;" parent="1" source="ed6IXrYMEEjexA1pDEx7-41" edge="1">
          <mxGeometry width="50" height="50" relative="1" as="geometry">
            <mxPoint x="260" y="120" as="sourcePoint" />
            <mxPoint x="30" y="187" as="targetPoint" />
          </mxGeometry>
        </mxCell>
        <mxCell id="ed6IXrYMEEjexA1pDEx7-166" value="" style="endArrow=none;html=1;rounded=0;fontSize=12;startSize=8;endSize=8;curved=1;entryX=0.5;entryY=1;entryDx=0;entryDy=0;exitX=0.5;exitY=0;exitDx=0;exitDy=0;" parent="1" source="ed6IXrYMEEjexA1pDEx7-161" target="DGtn6ml3krxi28r5MXvm-2" edge="1">
          <mxGeometry width="50" height="50" relative="1" as="geometry">
            <mxPoint x="177.5" y="676" as="sourcePoint" />
            <mxPoint x="252.5" y="596" as="targetPoint" />
          </mxGeometry>
        </mxCell>
        <mxCell id="ed6IXrYMEEjexA1pDEx7-167" value="" style="ellipse;whiteSpace=wrap;html=1;aspect=fixed;fontSize=16;fillColor=#000000;" parent="1" vertex="1">
          <mxGeometry x="234.5" y="757" width="10" height="10" as="geometry" />
        </mxCell>
        <mxCell id="ed6IXrYMEEjexA1pDEx7-168" value="[pk] ID_Usuario" style="text;html=1;strokeColor=none;fillColor=none;align=center;verticalAlign=middle;whiteSpace=wrap;rounded=0;fontSize=16;" parent="1" vertex="1">
          <mxGeometry x="227.5" y="747" width="150" height="30" as="geometry" />
        </mxCell>
        <mxCell id="ed6IXrYMEEjexA1pDEx7-169" value="" style="ellipse;whiteSpace=wrap;html=1;aspect=fixed;fontSize=16;" parent="1" vertex="1">
          <mxGeometry x="234.5" y="777" width="10" height="10" as="geometry" />
        </mxCell>
        <mxCell id="ed6IXrYMEEjexA1pDEx7-170" value="email" style="text;html=1;strokeColor=none;fillColor=none;align=center;verticalAlign=middle;whiteSpace=wrap;rounded=0;fontSize=16;" parent="1" vertex="1">
          <mxGeometry x="244.5" y="766" width="58" height="30" as="geometry" />
        </mxCell>
        <mxCell id="ed6IXrYMEEjexA1pDEx7-171" value="" style="ellipse;whiteSpace=wrap;html=1;aspect=fixed;fontSize=16;" parent="1" vertex="1">
          <mxGeometry x="234.5" y="796" width="10" height="10" as="geometry" />
        </mxCell>
        <mxCell id="ed6IXrYMEEjexA1pDEx7-172" value="senha" style="text;html=1;strokeColor=none;fillColor=none;align=center;verticalAlign=middle;whiteSpace=wrap;rounded=0;fontSize=16;" parent="1" vertex="1">
          <mxGeometry x="247.5" y="786" width="58" height="30" as="geometry" />
        </mxCell>
        <mxCell id="ed6IXrYMEEjexA1pDEx7-173" value="" style="endArrow=none;html=1;rounded=0;fontSize=12;startSize=8;endSize=8;curved=1;entryX=0;entryY=0.5;entryDx=0;entryDy=0;exitX=1;exitY=0.5;exitDx=0;exitDy=0;" parent="1" source="DGtn6ml3krxi28r5MXvm-2" target="ed6IXrYMEEjexA1pDEx7-58" edge="1">
          <mxGeometry width="50" height="50" relative="1" as="geometry">
            <mxPoint x="275" y="571" as="sourcePoint" />
            <mxPoint x="317.5" y="526" as="targetPoint" />
          </mxGeometry>
        </mxCell>
        <mxCell id="ed6IXrYMEEjexA1pDEx7-174" value="" style="ellipse;whiteSpace=wrap;html=1;aspect=fixed;fontSize=16;fillColor=#000000;" parent="1" vertex="1">
          <mxGeometry x="498.5" y="638" width="10" height="10" as="geometry" />
        </mxCell>
        <mxCell id="ed6IXrYMEEjexA1pDEx7-175" value="[fk] ID_Usuario" style="text;html=1;strokeColor=none;fillColor=none;align=center;verticalAlign=middle;whiteSpace=wrap;rounded=0;fontSize=16;" parent="1" vertex="1">
          <mxGeometry x="498.5" y="626" width="132" height="30" as="geometry" />
        </mxCell>
        <mxCell id="ed6IXrYMEEjexA1pDEx7-177" value="" style="endArrow=none;html=1;rounded=0;fontSize=12;startSize=8;endSize=8;curved=1;entryX=0.377;entryY=0.983;entryDx=0;entryDy=0;entryPerimeter=0;exitX=0;exitY=0.5;exitDx=0;exitDy=0;" parent="1" source="ed6IXrYMEEjexA1pDEx7-159" target="ed6IXrYMEEjexA1pDEx7-58" edge="1">
          <mxGeometry width="50" height="50" relative="1" as="geometry">
            <mxPoint x="403" y="679" as="sourcePoint" />
            <mxPoint x="453" y="629" as="targetPoint" />
          </mxGeometry>
        </mxCell>
        <mxCell id="ed6IXrYMEEjexA1pDEx7-178" value="" style="endArrow=none;html=1;rounded=0;fontSize=12;startSize=8;endSize=8;curved=1;entryX=0.362;entryY=1;entryDx=0;entryDy=0;entryPerimeter=0;" parent="1" target="ed6IXrYMEEjexA1pDEx7-161" edge="1">
          <mxGeometry width="50" height="50" relative="1" as="geometry">
            <mxPoint x="234.5" y="806" as="sourcePoint" />
            <mxPoint x="597.5" y="726" as="targetPoint" />
          </mxGeometry>
        </mxCell>
        <mxCell id="ed6IXrYMEEjexA1pDEx7-179" value="[fk] ID_Usuario" style="text;html=1;strokeColor=none;fillColor=none;align=center;verticalAlign=middle;whiteSpace=wrap;rounded=0;fontSize=16;" parent="1" vertex="1">
          <mxGeometry x="100" y="239" width="132" height="30" as="geometry" />
        </mxCell>
        <mxCell id="ed6IXrYMEEjexA1pDEx7-181" value="" style="endArrow=none;html=1;rounded=0;fontSize=12;startSize=8;endSize=8;curved=1;entryX=0.192;entryY=0.993;entryDx=0;entryDy=0;entryPerimeter=0;" parent="1" target="ed6IXrYMEEjexA1pDEx7-180" edge="1">
          <mxGeometry width="50" height="50" relative="1" as="geometry">
            <mxPoint x="96" y="330" as="sourcePoint" />
            <mxPoint x="96.03999999999996" y="209.58000000000004" as="targetPoint" />
          </mxGeometry>
        </mxCell>
        <mxCell id="ed6IXrYMEEjexA1pDEx7-180" value="" style="ellipse;whiteSpace=wrap;html=1;aspect=fixed;fontSize=16;fillColor=#000000;" parent="1" vertex="1">
          <mxGeometry x="95.5" y="228" width="10" height="10" as="geometry" />
        </mxCell>
        <mxCell id="okxWtbQ-i64ZqHGIuKGg-1" value="cadastra" style="rhombus;whiteSpace=wrap;html=1;fontSize=16;" parent="1" vertex="1">
          <mxGeometry x="573" y="386" width="90" height="71" as="geometry" />
        </mxCell>
        <mxCell id="okxWtbQ-i64ZqHGIuKGg-2" value="(1, 1)" style="text;html=1;strokeColor=none;fillColor=none;align=center;verticalAlign=middle;whiteSpace=wrap;rounded=0;" parent="1" vertex="1">
          <mxGeometry x="650" y="160" width="60" height="30" as="geometry" />
        </mxCell>
        <mxCell id="okxWtbQ-i64ZqHGIuKGg-3" value="(0, n)" style="text;html=1;strokeColor=none;fillColor=none;align=center;verticalAlign=middle;whiteSpace=wrap;rounded=0;" parent="1" vertex="1">
          <mxGeometry x="832" y="363" width="60" height="30" as="geometry" />
        </mxCell>
        <mxCell id="okxWtbQ-i64ZqHGIuKGg-5" value="(1, 1)" style="text;html=1;strokeColor=none;fillColor=none;align=center;verticalAlign=middle;whiteSpace=wrap;rounded=0;fontSize=16;" parent="1" vertex="1">
          <mxGeometry x="30" y="197" width="50" height="30" as="geometry" />
        </mxCell>
        <mxCell id="okxWtbQ-i64ZqHGIuKGg-6" value="(0, 1)" style="text;html=1;strokeColor=none;fillColor=none;align=center;verticalAlign=middle;whiteSpace=wrap;rounded=0;fontSize=16;" parent="1" vertex="1">
          <mxGeometry x="127.5" y="691" width="50" height="30" as="geometry" />
        </mxCell>
        <mxCell id="okxWtbQ-i64ZqHGIuKGg-7" value="" style="endArrow=none;html=1;rounded=0;exitX=1;exitY=0;exitDx=0;exitDy=0;entryX=0;entryY=1;entryDx=0;entryDy=0;" parent="1" source="ed6IXrYMEEjexA1pDEx7-58" target="okxWtbQ-i64ZqHGIuKGg-1" edge="1">
          <mxGeometry width="50" height="50" relative="1" as="geometry">
            <mxPoint x="675" y="550" as="sourcePoint" />
            <mxPoint x="725" y="500" as="targetPoint" />
          </mxGeometry>
        </mxCell>
        <mxCell id="okxWtbQ-i64ZqHGIuKGg-8" value="" style="endArrow=none;html=1;rounded=0;exitX=1;exitY=0.5;exitDx=0;exitDy=0;entryX=0;entryY=0.5;entryDx=0;entryDy=0;" parent="1" source="okxWtbQ-i64ZqHGIuKGg-1" target="ed6IXrYMEEjexA1pDEx7-60" edge="1">
          <mxGeometry width="50" height="50" relative="1" as="geometry">
            <mxPoint x="580" y="490" as="sourcePoint" />
            <mxPoint x="650" y="424" as="targetPoint" />
          </mxGeometry>
        </mxCell>
        <mxCell id="okxWtbQ-i64ZqHGIuKGg-9" value="(1, 1)" style="text;html=1;strokeColor=none;fillColor=none;align=center;verticalAlign=middle;whiteSpace=wrap;rounded=0;" parent="1" vertex="1">
          <mxGeometry x="777" y="417" width="60" height="30" as="geometry" />
        </mxCell>
        <mxCell id="okxWtbQ-i64ZqHGIuKGg-10" value="(0, 1)" style="text;html=1;strokeColor=none;fillColor=none;align=center;verticalAlign=middle;whiteSpace=wrap;rounded=0;" parent="1" vertex="1">
          <mxGeometry x="527.5" y="523" width="60" height="30" as="geometry" />
        </mxCell>
        <mxCell id="okxWtbQ-i64ZqHGIuKGg-11" value="" style="endArrow=none;html=1;rounded=0;exitX=0.5;exitY=0;exitDx=0;exitDy=0;" parent="1" source="ed6IXrYMEEjexA1pDEx7-129" edge="1">
          <mxGeometry width="50" height="50" relative="1" as="geometry">
            <mxPoint x="562.5" y="137" as="sourcePoint" />
            <mxPoint x="600" y="40" as="targetPoint" />
          </mxGeometry>
        </mxCell>
        <mxCell id="okxWtbQ-i64ZqHGIuKGg-12" value="" style="endArrow=none;html=1;rounded=0;entryX=0;entryY=0.5;entryDx=0;entryDy=0;" parent="1" target="ed6IXrYMEEjexA1pDEx7-75" edge="1">
          <mxGeometry width="50" height="50" relative="1" as="geometry">
            <mxPoint x="600" y="40" as="sourcePoint" />
            <mxPoint x="610" y="50" as="targetPoint" />
          </mxGeometry>
        </mxCell>
        <mxCell id="okxWtbQ-i64ZqHGIuKGg-13" value="(1, 1)" style="text;html=1;strokeColor=none;fillColor=none;align=center;verticalAlign=middle;whiteSpace=wrap;rounded=0;" parent="1" vertex="1">
          <mxGeometry x="580" y="216" width="60" height="30" as="geometry" />
        </mxCell>
        <mxCell id="okxWtbQ-i64ZqHGIuKGg-14" value="(0, 1)" style="text;html=1;strokeColor=none;fillColor=none;align=center;verticalAlign=middle;whiteSpace=wrap;rounded=0;fontSize=16;" parent="1" vertex="1">
          <mxGeometry x="260" y="639" width="50" height="30" as="geometry" />
        </mxCell>
        <mxCell id="s4vLkC2pemsQ5N37ZMZB-1" value="POSSUI" style="rhombus;whiteSpace=wrap;html=1;" parent="1" vertex="1">
          <mxGeometry x="173.5" y="-72" width="80" height="80" as="geometry" />
        </mxCell>
        <mxCell id="s4vLkC2pemsQ5N37ZMZB-2" value="TELEFONE" style="rounded=0;whiteSpace=wrap;html=1;fontSize=16;" parent="1" vertex="1">
          <mxGeometry x="316" y="-136" width="120" height="60" as="geometry" />
        </mxCell>
        <mxCell id="s4vLkC2pemsQ5N37ZMZB-3" value="ENDERECO" style="rounded=0;whiteSpace=wrap;html=1;fontSize=16;" parent="1" vertex="1">
          <mxGeometry x="-210" y="-95" width="120" height="60" as="geometry" />
        </mxCell>
        <mxCell id="s4vLkC2pemsQ5N37ZMZB-4" value="POSSUI" style="rhombus;whiteSpace=wrap;html=1;" parent="1" vertex="1">
          <mxGeometry x="8.5" y="-50" width="80" height="80" as="geometry" />
        </mxCell>
        <mxCell id="s4vLkC2pemsQ5N37ZMZB-5" value="" style="endArrow=none;html=1;rounded=0;entryX=1;entryY=0.5;entryDx=0;entryDy=0;exitX=0;exitY=0;exitDx=0;exitDy=0;" parent="1" source="s4vLkC2pemsQ5N37ZMZB-4" target="s4vLkC2pemsQ5N37ZMZB-3" edge="1">
          <mxGeometry width="50" height="50" relative="1" as="geometry">
            <mxPoint x="290" y="90" as="sourcePoint" />
            <mxPoint x="340" y="40" as="targetPoint" />
          </mxGeometry>
        </mxCell>
        <mxCell id="s4vLkC2pemsQ5N37ZMZB-6" value="" style="endArrow=none;html=1;rounded=0;entryX=0;entryY=0.5;entryDx=0;entryDy=0;exitX=1;exitY=0;exitDx=0;exitDy=0;" parent="1" source="s4vLkC2pemsQ5N37ZMZB-1" target="s4vLkC2pemsQ5N37ZMZB-2" edge="1">
          <mxGeometry width="50" height="50" relative="1" as="geometry">
            <mxPoint x="-64.5" y="-21" as="sourcePoint" />
            <mxPoint x="-161.5" y="-110" as="targetPoint" />
          </mxGeometry>
        </mxCell>
        <mxCell id="s4vLkC2pemsQ5N37ZMZB-7" value="" style="endArrow=none;html=1;rounded=0;entryX=1;entryY=1;entryDx=0;entryDy=0;exitX=0;exitY=1;exitDx=0;exitDy=0;" parent="1" source="s4vLkC2pemsQ5N37ZMZB-20" target="s4vLkC2pemsQ5N37ZMZB-4" edge="1">
          <mxGeometry width="50" height="50" relative="1" as="geometry">
            <mxPoint x="70" y="150" as="sourcePoint" />
            <mxPoint x="67" y="-50" as="targetPoint" />
          </mxGeometry>
        </mxCell>
        <mxCell id="s4vLkC2pemsQ5N37ZMZB-8" value="" style="endArrow=none;html=1;rounded=0;entryX=0;entryY=1;entryDx=0;entryDy=0;exitX=1;exitY=0;exitDx=0;exitDy=0;" parent="1" source="ed6IXrYMEEjexA1pDEx7-41" target="s4vLkC2pemsQ5N37ZMZB-1" edge="1">
          <mxGeometry width="50" height="50" relative="1" as="geometry">
            <mxPoint x="101" y="166" as="sourcePoint" />
            <mxPoint x="57" y="49" as="targetPoint" />
          </mxGeometry>
        </mxCell>
        <mxCell id="s4vLkC2pemsQ5N37ZMZB-10" value="[pk] ID_Eendereco" style="text;html=1;strokeColor=none;fillColor=none;align=center;verticalAlign=middle;whiteSpace=wrap;rounded=0;fontSize=16;" parent="1" vertex="1">
          <mxGeometry x="-164" y="-35" width="153" height="30" as="geometry" />
        </mxCell>
        <mxCell id="s4vLkC2pemsQ5N37ZMZB-11" value="" style="ellipse;whiteSpace=wrap;html=1;aspect=fixed;fillColor=#000000;" parent="1" vertex="1">
          <mxGeometry x="-171" y="-24" width="10" height="10" as="geometry" />
        </mxCell>
        <mxCell id="s4vLkC2pemsQ5N37ZMZB-12" value="" style="endArrow=none;html=1;rounded=0;exitX=0;exitY=0.5;exitDx=0;exitDy=0;" parent="1" source="ed6IXrYMEEjexA1pDEx7-120" edge="1">
          <mxGeometry width="50" height="50" relative="1" as="geometry">
            <mxPoint x="-200" y="236" as="sourcePoint" />
            <mxPoint x="-170" y="-27" as="targetPoint" />
          </mxGeometry>
        </mxCell>
        <mxCell id="s4vLkC2pemsQ5N37ZMZB-13" value="" style="ellipse;whiteSpace=wrap;html=1;aspect=fixed;fontSize=16;fillColor=#000000;" parent="1" vertex="1">
          <mxGeometry x="340.5" y="-72" width="10" height="10" as="geometry" />
        </mxCell>
        <mxCell id="s4vLkC2pemsQ5N37ZMZB-14" value="[pk] ID_Telefone" style="text;html=1;strokeColor=none;fillColor=none;align=center;verticalAlign=middle;whiteSpace=wrap;rounded=0;fontSize=16;" parent="1" vertex="1">
          <mxGeometry x="333.5" y="-82" width="162.5" height="30" as="geometry" />
        </mxCell>
        <mxCell id="s4vLkC2pemsQ5N37ZMZB-15" value="" style="ellipse;whiteSpace=wrap;html=1;aspect=fixed;fontSize=16;" parent="1" vertex="1">
          <mxGeometry x="340.5" y="-27" width="10" height="10" as="geometry" />
        </mxCell>
        <mxCell id="s4vLkC2pemsQ5N37ZMZB-16" value="Numero" style="text;html=1;strokeColor=none;fillColor=none;align=center;verticalAlign=middle;whiteSpace=wrap;rounded=0;fontSize=16;" parent="1" vertex="1">
          <mxGeometry x="351.5" y="-38" width="65.5" height="30" as="geometry" />
        </mxCell>
        <mxCell id="s4vLkC2pemsQ5N37ZMZB-19" value="" style="endArrow=none;html=1;rounded=0;fontSize=12;startSize=8;endSize=8;curved=1;entryX=0.362;entryY=1;entryDx=0;entryDy=0;entryPerimeter=0;" parent="1" edge="1">
          <mxGeometry width="50" height="50" relative="1" as="geometry">
            <mxPoint x="343" y="-7" as="sourcePoint" />
            <mxPoint x="343" y="-77" as="targetPoint" />
          </mxGeometry>
        </mxCell>
        <mxCell id="s4vLkC2pemsQ5N37ZMZB-20" value="(1, 1)" style="text;html=1;strokeColor=none;fillColor=none;align=center;verticalAlign=middle;whiteSpace=wrap;rounded=0;fontSize=16;" parent="1" vertex="1">
          <mxGeometry x="70" y="127" width="50" height="30" as="geometry" />
        </mxCell>
        <mxCell id="s4vLkC2pemsQ5N37ZMZB-21" value="(1, 1)" style="text;html=1;strokeColor=none;fillColor=none;align=center;verticalAlign=middle;whiteSpace=wrap;rounded=0;fontSize=16;" parent="1" vertex="1">
          <mxGeometry x="-90" y="-90" width="50" height="30" as="geometry" />
        </mxCell>
        <mxCell id="s4vLkC2pemsQ5N37ZMZB-22" value="(0, 1)" style="text;html=1;strokeColor=none;fillColor=none;align=center;verticalAlign=middle;whiteSpace=wrap;rounded=0;fontSize=16;" parent="1" vertex="1">
          <mxGeometry x="152.5" y="127" width="50" height="30" as="geometry" />
        </mxCell>
        <mxCell id="s4vLkC2pemsQ5N37ZMZB-23" value="(1, N)" style="text;html=1;strokeColor=none;fillColor=none;align=center;verticalAlign=middle;whiteSpace=wrap;rounded=0;fontSize=16;" parent="1" vertex="1">
          <mxGeometry x="263.5" y="-128.5" width="50" height="30" as="geometry" />
        </mxCell>
        <mxCell id="s4vLkC2pemsQ5N37ZMZB-24" value="" style="ellipse;whiteSpace=wrap;html=1;aspect=fixed;fontSize=16;fillColor=#000000;" parent="1" vertex="1">
          <mxGeometry x="340.5" y="-49" width="10" height="10" as="geometry" />
        </mxCell>
        <mxCell id="s4vLkC2pemsQ5N37ZMZB-25" value="[Fk] ID_Cliente" style="text;html=1;strokeColor=none;fillColor=none;align=center;verticalAlign=middle;whiteSpace=wrap;rounded=0;fontSize=16;" parent="1" vertex="1">
          <mxGeometry x="336" y="-61.5" width="162.5" height="30" as="geometry" />
        </mxCell>
        <mxCell id="s4vLkC2pemsQ5N37ZMZB-26" value="" style="ellipse;whiteSpace=wrap;html=1;aspect=fixed;fontSize=16;" parent="1" vertex="1">
          <mxGeometry x="341.5" y="-2" width="10" height="10" as="geometry" />
        </mxCell>
        <mxCell id="s4vLkC2pemsQ5N37ZMZB-27" value="Tipo" style="text;html=1;strokeColor=none;fillColor=none;align=center;verticalAlign=middle;whiteSpace=wrap;rounded=0;fontSize=16;" parent="1" vertex="1">
          <mxGeometry x="343" y="-11.5" width="65.5" height="30" as="geometry" />
        </mxCell>
        <mxCell id="s4vLkC2pemsQ5N37ZMZB-28" value="[Fk] ID_Cliente" style="text;html=1;strokeColor=none;fillColor=none;align=center;verticalAlign=middle;whiteSpace=wrap;rounded=0;fontSize=16;" parent="1" vertex="1">
          <mxGeometry x="-160" y="-11.5" width="122" height="30" as="geometry" />
        </mxCell>
        <mxCell id="s4vLkC2pemsQ5N37ZMZB-29" value="" style="ellipse;whiteSpace=wrap;html=1;aspect=fixed;fillColor=#000000;" parent="1" vertex="1">
          <mxGeometry x="-170" width="10" height="10" as="geometry" />
        </mxCell>
        <mxCell id="DGtn6ml3krxi28r5MXvm-1" value="tem" style="rhombus;whiteSpace=wrap;html=1;fontSize=16;" parent="1" vertex="1">
          <mxGeometry x="5" y="452" width="90" height="71" as="geometry" />
        </mxCell>
        <mxCell id="DGtn6ml3krxi28r5MXvm-2" value="tem" style="rhombus;whiteSpace=wrap;html=1;fontSize=16;" parent="1" vertex="1">
          <mxGeometry x="207.5" y="540.5" width="90" height="71" as="geometry" />
        </mxCell>
        <mxCell id="DGtn6ml3krxi28r5MXvm-3" value="" style="ellipse;whiteSpace=wrap;html=1;aspect=fixed;fontSize=16;" parent="1" vertex="1">
          <mxGeometry x="682.5" y="102" width="10" height="10" as="geometry" />
        </mxCell>
        <mxCell id="DGtn6ml3krxi28r5MXvm-4" value="tipo" style="text;html=1;strokeColor=none;fillColor=none;align=center;verticalAlign=middle;whiteSpace=wrap;rounded=0;fontSize=16;" parent="1" vertex="1">
          <mxGeometry x="680.5" y="92" width="66" height="30" as="geometry" />
        </mxCell>
        <mxCell id="DGtn6ml3krxi28r5MXvm-5" value="Pedido" style="rhombus;whiteSpace=wrap;html=1;fontSize=16;" parent="1" vertex="1">
          <mxGeometry x="310" y="147" width="80" height="80" as="geometry" />
        </mxCell>
        <mxCell id="DGtn6ml3krxi28r5MXvm-6" value="" style="endArrow=none;html=1;rounded=0;fontSize=12;startSize=8;endSize=8;curved=1;exitX=1;exitY=0.5;exitDx=0;exitDy=0;entryX=0;entryY=0.5;entryDx=0;entryDy=0;" parent="1" source="DGtn6ml3krxi28r5MXvm-5" target="ed6IXrYMEEjexA1pDEx7-129" edge="1">
          <mxGeometry width="50" height="50" relative="1" as="geometry">
            <mxPoint x="345" y="215" as="sourcePoint" />
            <mxPoint x="465" y="215" as="targetPoint" />
          </mxGeometry>
        </mxCell>
        <mxCell id="DGtn6ml3krxi28r5MXvm-7" value="&lt;font style=&quot;font-size: 14px;&quot;&gt;Venda&lt;/font&gt;" style="rounded=0;whiteSpace=wrap;html=1;" parent="1" vertex="1">
          <mxGeometry x="289.5" y="318" width="120" height="60" as="geometry" />
        </mxCell>
      </root>
    </mxGraphModel>
  </diagram>
</mxfile>
